<svg xmlns="http://www.w3.org/2000/svg" viewBox="0 0 96 96" width="12" height="12" preserveAspectRatio="xMidYMid meet" style="width: 100%; height: 100%; transform: translate3d(0px, 0px, 0px);"><defs><clipPath id="__lottie_element_2"><rect width="96" height="96" x="0" y="0"></rect></clipPath></defs><g clip-path="url(#__lottie_element_2)"><g transform="matrix(1.2430700063705444,0,0,1.2430700063705444,45.875,51.375)" opacity="1" style="display: block;"><g opacity="1" transform="matrix(0.9170600175857544,0,0,0.9170600175857544,7.25600004196167,-31.621000289916992)"><path fill="rgb(255,255,255)" fill-opacity="1" d=" M0,-7.7820000648498535 C4.294885635375977,-7.7820000648498535 7.7820000648498535,-4.294885635375977 7.7820000648498535,0 C7.7820000648498535,4.294885635375977 4.294885635375977,7.7820000648498535 0,7.7820000648498535 C-4.294885635375977,7.7820000648498535 -7.7820000648498535,4.294885635375977 -7.7820000648498535,0 C-7.7820000648498535,-4.294885635375977 -4.294885635375977,-7.7820000648498535 0,-7.7820000648498535z"></path></g><g opacity="1" transform="matrix(1.0399999618530273,0,0,1,3.13100004196167,0.5619999766349792)"><path fill="rgb(255,255,255)" fill-opacity="1" d=" M-2.0420000553131104,-24.107999801635742 C-2.0420000553131104,-24.107999801635742 -16.591999053955078,-24.118000030517578 -17.934999465942383,-24.121999740600586 C-19.757999420166016,-24.128000259399414 -21.132999420166016,-23.0310001373291 -21.363000869750977,-21.326000213623047 C-21.488000869750977,-20.400999069213867 -23.80299949645996,-5.757999897003174 -23.80299949645996,-5.757999897003174 C-23.80299949645996,-5.757999897003174 -24.04599952697754,-3.006999969482422 -20.91200065612793,-2.369999885559082 C-18.06399917602539,-1.7910000085830688 -16.81399917602539,-4.765999794006348 -16.81399917602539,-4.765999794006348 C-16.81399917602539,-4.765999794006348 -15.25,-15.875 -15.25,-15.875 C-15.25,-15.875 -4.25,-14.875 -4.25,-14.875 C-4.25,-14.875 -2.0420000553131104,-24.107999801635742 -2.0420000553131104,-24.107999801635742z"></path></g><g opacity="1" transform="matrix(1,0,0,1,0,0)"><path fill="rgb(255,255,255)" fill-opacity="1" d=" M-8.40999984741211,-2.999000072479248 C-8.40999984741211,-2.999000072479248 -13.295999526977539,15.090999603271484 -13.295999526977539,15.090999603271484 C-13.295999526977539,15.090999603271484 -28.80299949645996,27.975000381469727 -28.80299949645996,27.975000381469727 C-28.80299949645996,27.975000381469727 -31.511999130249023,30.52899932861328 -29.84600067138672,33.284000396728516 C-28.1560001373291,36.07899856567383 -24.614999771118164,34.724998474121094 -24.614999771118164,34.724998474121094 C-24.614999771118164,34.724998474121094 -7.109000205993652,20.840999603271484 -7.109000205993652,20.840999603271484 C-7.109000205993652,20.840999603271484 0.7170000076293945,0.18799999356269836 0.7170000076293945,0.18799999356269836 C0.7170000076293945,0.18799999356269836 -8.40999984741211,-2.999000072479248 -8.40999984741211,-2.999000072479248z"></path></g><g opacity="1" transform="matrix(0.9563047289848328,-0.2923716902732849,0.44667237997055054,1.0032426118850708,-0.8119999766349792,1.184999942779541)"><path fill="rgb(255,255,255)" fill-opacity="1" d=" M6.243000030517578,-2.453000068664551 C6.243000030517578,-2.453000068664551 -1.4520000219345093,3.0239999294281006 -1.4520000219345093,3.0239999294281006 C-1.4520000219345093,3.0239999294281006 9.807000160217285,9.92199993133545 9.807000160217285,9.92199993133545 C9.807000160217285,9.92199993133545 -1.6649999618530273,22.106000900268555 -1.6649999618530273,22.106000900268555 C-1.6649999618530273,22.106000900268555 -3.440999984741211,24.618999481201172 -1.0820000171661377,26.08300018310547 C1.2899999618530273,27.555999755859375 3.8980000019073486,25.527000427246094 3.8980000019073486,25.527000427246094 C3.8980000019073486,25.527000427246094 17.632999420166016,12.335000038146973 18.437999725341797,11.553000450134277 C19.43899917602539,10.581000328063965 19.347999572753906,9.064000129699707 18.31399917602539,8.229000091552734 C17.54199981689453,7.605999946594238 6.243000030517578,-2.453000068664551 6.243000030517578,-2.453000068664551z"></path></g><g opacity="1" transform="matrix(1.0800000429153442,0,0,1.0199999809265137,0,0)"><path fill="rgb(255,255,255)" fill-opacity="1" d=" M0.6570000052452087,-23.165000915527344 C0.6570000052452087,-23.165000915527344 -8.001999855041504,-2.7149999141693115 -8.001999855041504,-2.7149999141693115 C-8.001999855041504,-2.7149999141693115 -0.8659999966621399,4.563000202178955 -0.8659999966621399,4.563000202178955 C-0.8659999966621399,4.563000202178955 2.75,5.501999855041504 2.75,5.501999855041504 C2.75,5.501999855041504 7.625,-1.75 7.625,-1.75 C7.625,-1.75 8.592000007629395,-21.45400047302246 8.592000007629395,-21.45400047302246 C8.592000007629395,-21.45400047302246 0.6570000052452087,-23.165000915527344 0.6570000052452087,-23.165000915527344z"></path></g><g opacity="1" transform="matrix(1,0,0,1,0.6209999918937683,0.17499999701976776)"><path fill="rgb(255,255,255)" fill-opacity="1" d=" M8.5,-22 C8.5,-22 6.75,-11.75 6.75,-11.75 C6.75,-11.75 15.779999732971191,-5.435999870300293 16.874000549316406,-4.622000217437744 C18.093000411987305,-3.7160000801086426 19.80500030517578,-3.6489999294281006 20.996999740600586,-4.6020002365112305 C22.316999435424805,-5.6570000648498535 32.3380012512207,-13.295000076293945 32.3380012512207,-13.295000076293945 C32.3380012512207,-13.295000076293945 35.012001037597656,-16.461999893188477 32.96200180053711,-18.784000396728516 C30.683000564575195,-21.364999771118164 27.405000686645508,-18.920000076293945 27.405000686645508,-18.920000076293945 C27.405000686645508,-18.920000076293945 18.75,-13.125 18.75,-13.125 C18.75,-13.125 8.5,-22 8.5,-22z"></path></g></g><g style="display: none;"><g><path></path></g><g><path></path></g><g><path></path></g><g><path></path></g><g><path></path></g><g><path></path></g></g><g style="display: none;"><g><path></path></g><g><path></path></g><g><path></path></g><g><path></path></g><g><path></path></g><g><path></path></g></g><g style="display: none;"><g><path></path></g><g><path></path></g><g><path></path></g><g><path></path></g><g><path></path></g><g><path></path></g></g><g style="display: none;"><g><path></path></g><g><path></path></g><g><path></path></g><g><path></path></g><g><path></path></g><g><path></path></g></g><g style="display: none;"><g><path></path></g><g><path></path></g><g><path></path></g><g><path></path></g><g><path></path></g><g><path></path></g></g><g style="display: none;"><g><path></path></g><g><path></path></g><g><path></path></g><g><path></path><path stroke-linecap="butt" stroke-linejoin="miter" fill-opacity="0" stroke-miterlimit="4"></path></g><g><path></path></g><g><path></path></g></g><g style="display: none;"><g><path></path></g><g><path></path></g><g><path></path></g><g><path></path><path stroke-linecap="butt" stroke-linejoin="miter" fill-opacity="0" stroke-miterlimit="4"></path></g><g><path></path></g><g><path></path></g></g><g style="display: none;"><g><path></path></g><g><path></path></g><g><path></path></g><g><path></path></g><g><path></path></g><g><path></path></g></g><g style="display: none;"><g><path></path></g><g><path></path></g><g><path></path></g><g><path></path></g><g><path></path></g><g><path></path></g></g><g style="display: none;"><g><path></path></g><g><path></path></g><g><path></path></g><g><path></path></g><g><path></path></g><g><path></path><path stroke-linecap="butt" stroke-linejoin="miter" fill-opacity="0" stroke-miterlimit="4"></path></g></g><g style="display: none;"><g><path></path></g><g><path></path></g><g><path></path></g><g><path></path></g><g><path></path></g><g><path></path><path stroke-linecap="butt" stroke-linejoin="miter" fill-opacity="0" stroke-miterlimit="4"></path></g></g><g style="display: none;"><g><path></path></g><g><path></path></g><g><path></path></g><g><path></path></g><g><path></path></g><g><path></path></g></g><g style="display: none;"><g><path></path></g><g><path></path></g><g><path></path></g><g><path></path></g><g><path></path></g><g><path></path></g></g><g style="display: none;"><g><path></path></g><g><path></path></g><g><path></path></g><g><path></path></g><g><path></path></g><g><path></path></g></g><g style="display: none;"><g><path></path></g><g><path></path></g><g><path></path></g><g><path></path></g><g><path></path></g><g><path></path></g></g><g style="display: none;"><g><path></path></g><g><path></path></g><g><path></path></g><g><path></path></g><g><path></path></g><g><path></path></g></g><g style="display: none;"><g><path></path></g><g><path></path></g><g><path></path></g><g><path></path></g><g><path></path></g><g><path></path></g></g><g style="display: none;"><g><path></path></g><g><path></path></g><g><path></path></g><g><path></path></g><g><path></path></g><g><path></path></g></g><g style="display: none;"><g><path></path></g><g><path></path></g><g><path></path></g><g><path></path></g><g><path></path></g><g><path></path></g></g><g style="display: none;"><g><path></path></g><g><path></path></g><g><path></path></g><g><path></path></g><g><path></path></g><g><path></path></g></g><g style="display: none;"><g><path></path></g><g><path></path></g><g><path></path></g><g><path></path></g><g><path></path></g><g><path></path></g></g><g style="display: none;"><g><path></path></g><g><path></path></g><g><path></path></g><g><path></path></g><g><path></path></g><g><path></path></g></g><g style="display: none;"><g><path></path></g><g><path></path></g><g><path></path></g><g><path></path></g><g><path></path></g><g><path></path></g></g><g style="display: none;"><g><path></path></g><g><path></path></g><g><path></path></g><g><path></path></g><g><path></path></g><g><path></path></g></g><g style="display: none;"><g><path></path></g><g><path></path></g><g><path></path></g><g><path></path></g><g><path></path></g><g><path></path></g></g><g style="display: none;"><g><path></path></g><g><path></path></g><g><path></path></g><g><path></path></g><g><path></path></g></g><g style="display: none;"><g><path></path></g><g><path></path></g><g><path></path></g><g><path></path></g><g><path></path></g></g><g style="display: none;"><g><path></path></g><g><path></path></g><g><path></path></g><g><path></path></g><g><path></path></g><g><path></path></g></g><g style="display: none;"><g><path></path></g><g><path></path></g><g><path></path></g><g><path></path></g><g><path></path></g><g><path></path></g></g></g></svg>